<svg xmlns="http://www.w3.org/2000/svg" xmlns:xlink="http://www.w3.org/1999/xlink" 
version="1.1" x="0px" y="0px" viewBox="0 0 944.938 700" style="object-fit: cover" >
	<g id="Ñëîé_3">
		<g>
			<g>
				<path style="fill:#D14040;" d="M155.098,486.423c0.141-3.279-0.419-6.577-2.143-9.603c-5.109-8.967-19.145-13.293-33.756-8.765     c-14.612-4.529-28.647-0.202-33.756,8.765c-1.724,3.026-2.284,6.324-2.143,9.603c-0.41,10.105,5.115,21.503,11.792,28.146     c2.07,2.06,9.537,8.922,21.024,9.717c0.547,0.038,1.622,0.098,3.083,0.043c1.46,0.055,2.536-0.005,3.083-0.043     c11.487-0.795,18.954-7.657,21.025-9.717C149.983,507.925,155.508,496.527,155.098,486.423z" />
			</g>
			<g>
				<path style="fill:#DD5252;" d="M145.178,483.9c0.119-2.766-0.354-5.548-1.808-8.101c-4.31-7.564-16.15-11.214-28.476-7.394     c-12.326-3.82-24.166-0.171-28.476,7.394c-1.454,2.552-1.927,5.335-1.808,8.101c-0.346,8.524,4.315,18.139,9.948,23.744     c1.746,1.738,8.046,7.526,17.736,8.197c0.461,0.032,1.368,0.083,2.601,0.037c1.232,0.046,2.139-0.005,2.6-0.037     c9.69-0.671,15.99-6.459,17.736-8.197C140.864,502.039,145.524,492.424,145.178,483.9z" />
			</g>
			<g>
				<path style="fill:#A0E045;" d="M118.448,468.248c0,0,8.021-16.778,30.073-19.32C148.521,448.927,142.502,466.108,118.448,468.248     z" />
			</g>
		</g>
		<g>
			<g>
				<path style="fill:#8CE097;" d="M182.538,510.051c-0.141-14.321,1.556-28.865,3.25-42.737c0.643-5.262,1.344-10.525,2.101-15.782     v-64.309c0-8.517-7.462-15.109-15.914-14.06c-7.775,0.966-13.289,8.058-12.31,15.831l8.587,68.151v50.388L182.538,510.051z" />
			</g>
			<g>
				<path style="fill:#8CE097;" d="M177.754,417.195c0,0-37.498,13.525-40.498-32.579c-3-46.104-58.147,43.456,40.498,54.464V417.195     z" />
			</g>
			<g>
				<path style="fill:#8CE097;" d="M177.754,437.725c0,0,25.934,9.354,28.009-22.532c2.075-31.886,40.216,30.055-28.009,37.668     V437.725z" />
			</g>
		</g>
		<g>
			<polygon style="fill:#A9D8D5;" points="189.626,527.398 158.949,527.398 156.685,492.934 191.89,492.934   " />
		</g>
		<g>
			<rect x="61.952" y="525.667" style="fill:#3D938A;" width="821.034" height="4.233" />
		</g>
		<g>
			<path style="fill:#78D5E4;" d="M617.821,516.56H304.604c-4.198,0-7.633-3.435-7.633-7.633V298.8c0-4.198,3.435-7.633,7.633-7.633    h313.217c4.198,0,7.633,3.435,7.633,7.633v210.127C625.454,513.125,622.019,516.56,617.821,516.56z" />
		</g>
		<g>
			<path style="fill:#2F518E;" d="M606.696,508.927H315.728c-4.198,0-7.633-3.435-7.633-7.633V306.433    c0-4.198,3.435-7.633,7.633-7.633h290.968c4.198,0,7.633,3.435,7.633,7.633v194.861    C614.33,505.492,610.895,508.927,606.696,508.927z" />
		</g>
		<g>
			<g>
				<rect x="355.884" y="320.045" style="fill:#FDFEFE;" width="40.244" height="4.464" />
			</g>
			<g>
				<rect x="355.884" y="330.045" style="fill:#FDFEFE;" width="25.642" height="4.464" />
			</g>
			<g>
				<rect x="395.884" y="330.045" style="fill:#FDFEFE;" width="103.116" height="4.464" />
			</g>
			<g>
				<rect x="509" y="330.045" style="fill:#FC6454;" width="54" height="4.464" />
			</g>
			<g>
				<rect x="365.884" y="340.045" style="fill:#58D05B;" width="65.116" height="4.464" />
			</g>
			<g>
				<rect x="451" y="340.045" style="fill:#FDFEFE;" width="97.018" height="4.464" />
			</g>
			<g>
				<rect x="355.884" y="350.045" style="fill:#FC6454;" width="91.558" height="4.464" />
			</g>
			<g>
				<rect x="455.884" y="350.045" style="fill:#78D5E4;" width="65.116" height="4.464" />
			</g>
			<g>
				<rect x="365.884" y="360.045" style="fill:#FDFEFE;" width="65.116" height="4.464" />
			</g>
			<g>
				<rect x="355.884" y="370.045" style="fill:#FDFEFE;" width="95.116" height="4.464" />
			</g>
			<g>
				<rect x="355.884" y="380.045" style="fill:#FDFEFE;" width="65.116" height="4.464" />
			</g>
			<g>
				<rect x="375.884" y="390.045" style="fill:#FC6454;" width="108.618" height="4.464" />
			</g>
			<g>
				<rect x="495.884" y="390.045" style="fill:#FDFEFE;" width="35.116" height="4.464" />
			</g>
			<g>
				<rect x="545.884" y="390.045" style="fill:#FDFEFE;" width="35.116" height="4.464" />
			</g>
			<g>
				<rect x="385.884" y="400.045" style="fill:#FDFEFE;" width="44.309" height="4.464" />
			</g>
			<g>
				<rect x="385.884" y="410.045" style="fill:#FC6454;" width="59.109" height="4.464" />
			</g>
			<g>
				<rect x="465.884" y="410.045" style="fill:#FDFEFE;" width="65.116" height="4.464" />
			</g>
			<g>
				<rect x="545.884" y="410.045" style="fill:#FC6454;" width="27.116" height="4.464" />
			</g>
			<g>
				<rect x="355.884" y="420.045" style="fill:#FDFEFE;" width="40" height="4.464" />
			</g>
			<g>
				<rect x="355.884" y="430.045" style="fill:#FDFEFE;" width="65.116" height="4.464" />
			</g>
			<g>
				<rect x="385.884" y="440.045" style="fill:#FDFEFE;" width="118.116" height="4.464" />
			</g>
			<g>
				<rect x="515.884" y="440.045" style="fill:#78D5E4;" width="73.116" height="4.464" />
			</g>
			<g>
				<rect x="385.884" y="450.045" style="fill:#FDFEFE;" width="40.116" height="4.464" />
			</g>
			<g>
				<rect x="435.884" y="450.045" style="fill:#58D05B;" width="40.116" height="4.464" />
			</g>
			<g>
				<rect x="485.884" y="450.045" style="fill:#FDFEFE;" width="40.116" height="4.464" />
			</g>
			<g>
				<rect x="355.884" y="460.045" style="fill:#FDFEFE;" width="65.116" height="4.464" />
			</g>
			<g>
				<rect x="375.884" y="470.045" style="fill:#58D05B;" width="65.116" height="4.464" />
			</g>
			<g>
				<rect x="453.326" y="470.045" style="fill:#58D05B;" width="65.116" height="4.464" />
			</g>
			<g>
				<rect x="451.944" y="490.045" style="fill:#FDFEFE;" width="36.498" height="4.464" />
			</g>
			<g>
				<rect x="375.884" y="480.045" style="fill:#FDFEFE;" width="96.585" height="4.464" />
			</g>
			<g>
				<g>
					<rect x="326.237" y="320.045" style="fill:#7194BF;" width="4.464" height="4.464" />
				</g>
				<g>
					<rect x="326.237" y="330.045" style="fill:#7194BF;" width="4.464" height="4.464" />
				</g>
				<g>
					<rect x="326.237" y="340.045" style="fill:#7194BF;" width="4.464" height="4.464" />
				</g>
				<g>
					<rect x="326.237" y="350.045" style="fill:#7194BF;" width="4.464" height="4.464" />
				</g>
				<g>
					<rect x="326.237" y="360.045" style="fill:#7194BF;" width="4.464" height="4.464" />
				</g>
				<g>
					<rect x="326.237" y="370.045" style="fill:#7194BF;" width="4.464" height="4.464" />
				</g>
				<g>
					<rect x="326.237" y="380.045" style="fill:#7194BF;" width="4.464" height="4.464" />
				</g>
				<g>
					<rect x="326.237" y="390.045" style="fill:#7194BF;" width="4.464" height="4.464" />
				</g>
				<g>
					<rect x="326.237" y="400.045" style="fill:#7194BF;" width="4.464" height="4.464" />
				</g>
				<g>
					<rect x="326.237" y="410.045" style="fill:#7194BF;" width="4.464" height="4.464" />
				</g>
				<g>
					<rect x="326.237" y="420.045" style="fill:#7194BF;" width="4.464" height="4.464" />
				</g>
				<g>
					<rect x="326.237" y="430.045" style="fill:#7194BF;" width="4.464" height="4.464" />
				</g>
				<g>
					<rect x="326.237" y="440.045" style="fill:#7194BF;" width="4.464" height="4.464" />
				</g>
				<g>
					<rect x="326.237" y="450.045" style="fill:#7194BF;" width="4.464" height="4.464" />
				</g>
				<g>
					<rect x="326.237" y="460.045" style="fill:#7194BF;" width="4.464" height="4.464" />
				</g>
				<g>
					<rect x="326.237" y="470.045" style="fill:#7194BF;" width="4.464" height="4.464" />
				</g>
				<g>
					<rect x="326.237" y="480.045" style="fill:#7194BF;" width="4.464" height="4.464" />
				</g>
				<g>
					<rect x="326.237" y="490.045" style="fill:#7194BF;" width="4.464" height="4.464" />
				</g>
			</g>
			<g>
				<rect x="375.884" y="490.045" style="fill:#FDFEFE;" width="48.292" height="4.464" />
			</g>
			<g>
				<g>
					<path style="fill:#FDFEFE;" d="M565.216,494.418l-18.996-8.068v-3.29l18.996-8.068v3.505l-15.079,6.207l15.079,6.208V494.418z" />
				</g>
				<g>
					<path style="fill:#FDFEFE;" d="M578.572,470.154l-8.304,28.71h-2.84l8.304-28.71H578.572z" />
				</g>
				<g>
					<path style="fill:#FDFEFE;" d="M599.78,486.35l-18.996,8.068v-3.506l15.079-6.208l-15.079-6.207v-3.505l18.996,8.068V486.35z" />
				</g>
			</g>
		</g>
		<g>
			<path style="fill:#19BBD2;" d="M617.457,524.896H300.468c-11.044,0-19.996-8.953-19.996-19.996l0,0h356.982l0,0    C637.454,515.943,628.501,524.896,617.457,524.896z" />
		</g>
		<g style="opacity:0.1;">
			<g>
				<polygon style="fill:#FFFFFF;" points="409.876,508.927 484.502,298.8 456.152,298.8 381.527,508.927    " />
			</g>
			<g>
				<path style="fill:#FFFFFF;" d="M315.728,508.927h13.319L403.673,298.8h-87.945c-4.198,0-7.633,3.435-7.633,7.633v194.861     C308.095,505.492,311.53,508.927,315.728,508.927z" />
			</g>
			<g>
				<path style="fill:#FFFFFF;" d="M568.027,508.927h38.669c4.198,0,7.633-3.435,7.633-7.633V378.55L568.027,508.927z" />
			</g>
		</g>
		<g style="opacity:0.1;">
			<g>
				<polygon style="fill:#FFFFFF;" points="464.756,508.927 516.656,508.927 591.281,298.8 539.381,298.8    " />
			</g>
		</g>
		<g>
			<path style="fill:#7BD7E2;" d="M634.757,514.897c1.705-2.944,2.697-6.352,2.697-9.998H280.471c0,3.646,0.992,7.055,2.697,9.998    H634.757z" />
		</g>
		<g>
			<g>
				<path style="fill:#F07248;" d="M797.907,525.667H651.88c-7.401,0-13.401-6-13.401-13.401l0,0c0-7.401,6-13.401,13.401-13.401     h146.027V525.667z" />
			</g>
			<g>
				<path style="fill:#E55B36;" d="M789.345,525.667h82.836v-26.803h-82.836c-7.401,0-13.401,6-13.401,13.401l0,0     C775.944,519.667,781.944,525.667,789.345,525.667z" />
			</g>
			<g>
				<path style="fill:#F2E8E0;" d="M793.819,520.649h78.362v-17.749h-78.362c-4.901,0-8.875,3.973-8.875,8.875l0,0     C784.944,516.675,788.917,520.649,793.819,520.649z" />
			</g>
			<g>
				<path style="fill:#FCE059;" d="M774.235,499.106H651.611c-12.315,0-22.299-9.983-22.299-22.299l0,0     c0-12.315,9.983-22.299,22.299-22.299h122.624V499.106z" />
			</g>
			<g>
				<path style="fill:#F9BD5B;" d="M776.569,499.106h84.807v-44.597h-84.807c-12.315,0-22.299,9.983-22.299,22.299l0,0     C754.27,489.123,764.254,499.106,776.569,499.106z" />
			</g>
			<g>
				<path style="fill:#F2E8E0;" d="M777.218,490.757h84.158v-29.534h-84.158c-8.156,0-14.767,6.611-14.767,14.767l0,0     C762.451,484.146,769.063,490.757,777.218,490.757z" />
			</g>
			<g>
				<polygon style="fill:#D14040;" points="824.063,543.278 813.51,537.076 802.958,543.278 802.958,507.487 824.063,507.487    " />
			</g>
			<g>
				<polygon style="fill:#D14040;" points="850.494,508.828 839.942,502.625 829.389,508.828 829.389,473.037 850.494,473.037    " />
			</g>
			<g>
				<path style="fill:#B4F463;" d="M790.326,454.776H681.939c-5.398,0-9.773-4.376-9.773-9.773l0,0c0-5.398,4.376-9.773,9.773-9.773     h108.387V454.776z" />
			</g>
			<g>
				<path style="fill:#A0E045;" d="M783.822,454.776h77.554v-19.547h-77.554c-5.398,0-9.773,4.376-9.773,9.773l0,0     C774.049,450.4,778.424,454.776,783.822,454.776z" />
			</g>
			<g>
				<path style="fill:#F2E8E0;" d="M787.191,451.116h74.185v-12.944h-74.185c-3.575,0-6.472,2.898-6.472,6.472l0,0     C780.719,448.219,783.617,451.116,787.191,451.116z" />
			</g>
			<g>
				<polygon style="fill:#D14040;" points="802.958,464.509 797.682,460.634 792.406,464.509 792.406,442.15 802.958,442.15    " />
			</g>
		</g>
		<g>
			<path style="fill:#D14040;" d="M697.955,476.686L697.955,476.686c0-11.594,8.898-21.104,20.237-22.088v-0.09h-44.404    c-12.248,0-22.177,9.929-22.177,22.177v0c0,12.248,9.929,22.177,22.177,22.177h44.404v-0.09    C706.853,497.791,697.955,488.28,697.955,476.686z" />
		</g>
		<g>
			<g>
				<rect x="214.184" y="413.327" style="fill:#BFD1D0;" width="61.147" height="17.901" />
			</g>
			<g>
				<rect x="214.184" y="417.35" style="fill:#A6BCBB;" width="61.147" height="13.877" />
			</g>
			<g>
				<rect x="246.916" y="405.037" style="fill:#BFD1D0;" width="18.943" height="12.313" />
			</g>
			<g>
				<polygon style="fill:#FDFEFE;" points="270.331,525.383 219.184,525.383 209.184,430.045 280.331,430.045    " />
			</g>
			<g>
				<path style="fill:#F4EDCB;" d="M270.331,525.383h-51.147l-10-95.338l10.557,43.933     C225.791,499.155,245.253,518.931,270.331,525.383L270.331,525.383z" />
			</g>
			<g>
				<rect x="202.76" y="427.996" style="fill:#A6BCBB;" width="83.996" height="5.984" />
			</g>
			<g>
				<rect x="202.76" y="420.045" style="fill:#BFD1D0;" width="83.996" height="10.943" />
			</g>
			<g>
				<polygon style="fill:#A9D8D5;" points="272.689,502.899 278.233,450.045 211.282,450.045 216.826,502.899    " />
			</g>
			<g>
				<ellipse transform="matrix(0.7241 -0.6897 0.6897 0.7241 -258.5146 304.0678)" style="fill:#80CEC7;" cx="250.818" cy="475.169" rx="19.249" ry="19.249" />
			</g>
			<g>
				<path style="fill:#80CEC7;" d="M211.282,450.045l5.544,52.854h55.864l-30.94-5.51c-9.952-1.772-18.111-8.899-21.204-18.523     L211.282,450.045z" />
			</g>
		</g>
		<g>
			<path style="fill:#ABEFEF;" d="M332.102,267.368h-75.345c-6.6,0-12-5.4-12-12v-58.902c0-6.6,5.4-12,12-12h75.345    c6.6,0,12,5.4,12,12v58.902C344.102,261.969,338.702,267.368,332.102,267.368z" />
		</g>
		<g>
			<polygon style="fill:#ABEFEF;" points="336.37,249.244 340.404,285.493 312.07,260.766   " />
		</g>
		<g>
			<g>
				<path style="fill:#D2F9FE;" d="M323.501,214.523L313.1,203.216l-5.249,3.951c-0.853-0.528-1.73-1.004-2.629-1.42l-0.489-8.603     l-15.35-0.64l-0.189,1.337l-0.673-0.028l-0.946,6.7c-0.817,0.247-1.623,0.539-2.417,0.872l-5.401-4.82l-11.307,10.401     l4.354,5.784c-0.373,0.715-0.71,1.446-1.009,2.189l-8.04,0.457l-0.64,15.35l8.077,1.14c0.063,0.195,0.125,0.39,0.192,0.583     l-5.425,6.079l10.401,11.307l5.72-4.305c0.31,0.185,0.624,0.361,0.941,0.531l-0.407,7.812l15.189,2.303l1.946-7.654     c1.156-0.234,2.3-0.551,3.421-0.952l5.457,4.87l11.307-10.401l-3.848-5.113c0.347-0.583,0.667-1.178,0.962-1.782l8.056-0.458     l0.64-15.35l-6.867-0.969c-0.165-0.683-0.362-1.36-0.586-2.03L323.501,214.523z M308.003,216.085     c6.706,7.289,6.23,18.675-1.059,25.381c-7.289,6.706-18.675,6.231-25.381-1.059c-6.706-7.29-6.231-18.675,1.059-25.381     C289.912,208.321,301.298,208.796,308.003,216.085z" />
			</g>
		</g>
	</g>
</svg>
