<svg width="78" height="67" viewBox="0 0 78 67" fill="none" xmlns="http://www.w3.org/2000/svg">
<mask id="path-1-inside-1_3_1446" fill="white">
<path fill-rule="evenodd" clip-rule="evenodd" d="M66.5076 23.3238C67.1503 21.502 67.5 19.5418 67.5 17.5C67.5 7.83502 59.665 0 50 0C41.398 0 34.2455 6.2064 32.7763 14.3855C30.9772 11.7386 27.9417 10 24.5 10C18.9772 10 14.5 14.4772 14.5 20C14.5 21.0452 14.6604 22.053 14.9578 23H14.5C6.76801 23 0.5 29.268 0.5 37C0.5 44.732 6.76801 51 14.5 51H63.5C71.232 51 77.5 44.732 77.5 37C77.5 30.3005 72.7941 24.7 66.5076 23.3238Z"/>
</mask>
<path fill-rule="evenodd" clip-rule="evenodd" d="M66.5076 23.3238C67.1503 21.502 67.5 19.5418 67.5 17.5C67.5 7.83502 59.665 0 50 0C41.398 0 34.2455 6.2064 32.7763 14.3855C30.9772 11.7386 27.9417 10 24.5 10C18.9772 10 14.5 14.4772 14.5 20C14.5 21.0452 14.6604 22.053 14.9578 23H14.5C6.76801 23 0.5 29.268 0.5 37C0.5 44.732 6.76801 51 14.5 51H63.5C71.232 51 77.5 44.732 77.5 37C77.5 30.3005 72.7941 24.7 66.5076 23.3238Z" fill="white"/>
<path d="M66.5076 23.3238L64.6215 22.6584L63.8683 24.7934L66.0799 25.2776L66.5076 23.3238ZM32.7763 14.3855L31.1222 15.5098L33.8781 19.5643L34.7448 14.7391L32.7763 14.3855ZM14.9578 23V25H17.6823L16.8659 22.4007L14.9578 23ZM65.5 17.5C65.5 19.312 65.1899 21.0474 64.6215 22.6584L68.3936 23.9892C69.1107 21.9566 69.5 19.7716 69.5 17.5H65.5ZM50 2C58.5604 2 65.5 8.93959 65.5 17.5H69.5C69.5 6.73045 60.7696 -2 50 -2V2ZM34.7448 14.7391C36.0459 7.49606 42.3832 2 50 2V-2C40.4128 -2 32.4452 4.91673 30.8078 14.0319L34.7448 14.7391ZM34.4304 13.2613C32.2749 10.09 28.6318 8 24.5 8V12C27.2515 12 29.6796 13.3873 31.1222 15.5098L34.4304 13.2613ZM24.5 8C17.8726 8 12.5 13.3726 12.5 20H16.5C16.5 15.5817 20.0817 12 24.5 12V8ZM12.5 20C12.5 21.2508 12.692 22.4606 13.0497 23.5993L16.8659 22.4007C16.6287 21.6453 16.5 20.8396 16.5 20H12.5ZM14.9578 21H14.5V25H14.9578V21ZM14.5 21C5.66344 21 -1.5 28.1634 -1.5 37H2.5C2.5 30.3726 7.87258 25 14.5 25V21ZM-1.5 37C-1.5 45.8366 5.66344 53 14.5 53V49C7.87258 49 2.5 43.6274 2.5 37H-1.5ZM14.5 53H63.5V49H14.5V53ZM63.5 53C72.3366 53 79.5 45.8366 79.5 37H75.5C75.5 43.6274 70.1274 49 63.5 49V53ZM79.5 37C79.5 29.3409 74.1204 22.943 66.9353 21.3701L66.0799 25.2776C71.4679 26.457 75.5 31.26 75.5 37H79.5Z" fill="#F1C200" mask="url(#path-1-inside-1_3_1446)"/>
<rect x="29.5" y="26" width="20" height="41" fill="white"/>
<path d="M40.2071 29.2929C39.8166 28.9024 39.1834 28.9024 38.7929 29.2929L32.4289 35.6569C32.0384 36.0474 32.0384 36.6805 32.4289 37.0711C32.8195 37.4616 33.4526 37.4616 33.8431 37.0711L39.5 31.4142L45.1569 37.0711C45.5474 37.4616 46.1805 37.4616 46.5711 37.0711C46.9616 36.6805 46.9616 36.0474 46.5711 35.6569L40.2071 29.2929ZM40.5 63L40.5 30H38.5L38.5 63H40.5Z" fill="#F1C200"/>
</svg>
