<svg xmlns="http://www.w3.org/2000/svg" xmlns:xlink="http://www.w3.org/1999/xlink" width="1584" zoomAndPan="magnify" viewBox="0 0 1188 296.999993" height="396" preserveAspectRatio="xMidYMid meet" version="1.0"><defs><g/></defs><g fill="#100f0d" fill-opacity="1"><g transform="translate(79.48829, 185.999613)"><g><path d="M 98.328125 0 L 8.71875 0 L 8.71875 -22 L 40.515625 -22 L 40.515625 -69.34375 L 8.71875 -69.34375 L 8.71875 -91.21875 L 98.328125 -91.21875 L 98.328125 -69.34375 L 66.671875 -69.34375 L 66.671875 -22 L 98.328125 -22 Z M 98.328125 0 "/></g></g></g><g fill="#100f0d" fill-opacity="1"><g transform="translate(186.535677, 185.999613)"><g><path d="M 70.5625 2.140625 C 47.125 2.140625 26.644531 1.113281 9.125 -0.9375 L 8.1875 -25.359375 C 25.800781 -23.023438 39.835938 -21.503906 50.296875 -20.796875 C 60.765625 -20.171875 73.109375 -19.632812 87.328125 -19.1875 L 87.328125 -33.9375 L 38.625 -37.6875 C 27.71875 -38.582031 19.671875 -41.242188 14.484375 -45.671875 C 9.296875 -50.097656 6.703125 -56.5625 6.703125 -65.0625 C 6.703125 -74.800781 10.234375 -81.953125 17.296875 -86.515625 C 24.367188 -91.078125 35.503906 -93.359375 50.703125 -93.359375 C 66.617188 -93.359375 86.335938 -92.421875 109.859375 -90.546875 L 110.671875 -66.125 C 93.410156 -68.457031 77.710938 -70.066406 63.578125 -70.953125 C 54.097656 -71.585938 44.753906 -71.945312 35.546875 -72.03125 L 35.546875 -57.6875 L 81.6875 -54.0625 C 93.582031 -53.070312 102.300781 -50.382812 107.84375 -46 C 113.394531 -41.625 116.171875 -35.007812 116.171875 -26.15625 C 116.171875 -16.582031 112.660156 -9.472656 105.640625 -4.828125 C 98.617188 -0.179688 86.925781 2.140625 70.5625 2.140625 Z M 70.5625 2.140625 "/></g></g></g><g fill="#100f0d" fill-opacity="1"><g transform="translate(308.070688, 185.999613)"><g><path d="M 100.0625 -58.078125 L 100.0625 -91.21875 L 127.5625 -91.21875 L 127.5625 0 L 100.0625 0 L 100.0625 -34.75 L 42.25 -34.75 L 42.25 0 L 14.75 0 L 14.75 -91.21875 L 42.25 -91.21875 L 42.25 -58.078125 Z M 100.0625 -58.078125 "/></g></g></g><g fill="#100f0d" fill-opacity="1"><g transform="translate(450.398103, 185.999613)"><g><path d="M 67.078125 0 L 27.640625 0 L 0.40625 -90.546875 L 0.40625 -91.21875 L 28.84375 -91.21875 L 49.625 -18.640625 L 50.4375 -18.640625 L 66.796875 -73.375 L 97.390625 -73.375 L 113.34375 -18.640625 L 114.15625 -18.640625 L 135.75 -91.21875 L 163.25 -91.21875 L 163.25 -90.546875 L 134.546875 0 L 95.90625 0 L 81.953125 -47.625 L 81.296875 -47.625 Z M 67.078125 0 "/></g></g></g><g fill="#100f0d" fill-opacity="1"><g transform="translate(614.054513, 185.999613)"><g><path d="M 72.703125 2.140625 C 56.609375 2.140625 44.019531 0.644531 34.9375 -2.34375 C 25.863281 -5.34375 19.335938 -10.257812 15.359375 -17.09375 C 11.378906 -23.9375 9.390625 -33.441406 9.390625 -45.609375 C 9.390625 -57.859375 11.351562 -67.40625 15.28125 -74.25 C 19.21875 -81.09375 25.722656 -85.988281 34.796875 -88.9375 C 43.878906 -91.882812 56.515625 -93.359375 72.703125 -93.359375 C 88.890625 -93.359375 101.519531 -91.882812 110.59375 -88.9375 C 119.675781 -85.988281 126.179688 -81.09375 130.109375 -74.25 C 134.046875 -67.40625 136.015625 -57.859375 136.015625 -45.609375 C 136.015625 -33.441406 134.046875 -23.9375 130.109375 -17.09375 C 126.179688 -10.257812 119.675781 -5.34375 110.59375 -2.34375 C 101.519531 0.644531 88.890625 2.140625 72.703125 2.140625 Z M 72.703125 -22 C 83.796875 -22 94.882812 -22.265625 105.96875 -22.796875 L 105.96875 -68.546875 C 93.625 -68.992188 82.535156 -69.21875 72.703125 -69.21875 C 62.867188 -69.21875 51.828125 -68.992188 39.578125 -68.546875 L 39.578125 -22.796875 C 50.578125 -22.265625 61.617188 -22 72.703125 -22 Z M 72.703125 -22 "/></g></g></g><g fill="#100f0d" fill-opacity="1"><g transform="translate(759.467256, 185.999613)"><g><path d="M 127.84375 -0.671875 L 127.84375 0 L 92.421875 0 L 59.015625 -31.65625 L 42.25 -31.65625 L 42.25 0 L 14.75 0 L 14.75 -91.21875 L 88.796875 -91.21875 C 101.765625 -91.21875 111.289062 -88.734375 117.375 -83.765625 C 123.457031 -78.804688 126.5 -71.363281 126.5 -61.4375 C 126.5 -52.226562 123.878906 -45.140625 118.640625 -40.171875 C 113.410156 -35.210938 105.253906 -32.421875 94.171875 -31.796875 Z M 97.515625 -70.015625 L 42.25 -70.015625 L 42.25 -50.84375 L 97.515625 -50.84375 Z M 97.515625 -70.015625 "/></g></g></g><g fill="#100f0d" fill-opacity="1"><g transform="translate(936.001517, 185.999613)"><g><path d="M 70.5625 2.140625 C 47.125 2.140625 26.644531 1.113281 9.125 -0.9375 L 8.1875 -25.359375 C 25.800781 -23.023438 39.835938 -21.503906 50.296875 -20.796875 C 60.765625 -20.171875 73.109375 -19.632812 87.328125 -19.1875 L 87.328125 -33.9375 L 38.625 -37.6875 C 27.71875 -38.582031 19.671875 -41.242188 14.484375 -45.671875 C 9.296875 -50.097656 6.703125 -56.5625 6.703125 -65.0625 C 6.703125 -74.800781 10.234375 -81.953125 17.296875 -86.515625 C 24.367188 -91.078125 35.503906 -93.359375 50.703125 -93.359375 C 66.617188 -93.359375 86.335938 -92.421875 109.859375 -90.546875 L 110.671875 -66.125 C 93.410156 -68.457031 77.710938 -70.066406 63.578125 -70.953125 C 54.097656 -71.585938 44.753906 -71.945312 35.546875 -72.03125 L 35.546875 -57.6875 L 81.6875 -54.0625 C 93.582031 -53.070312 102.300781 -50.382812 107.84375 -46 C 113.394531 -41.625 116.171875 -35.007812 116.171875 -26.15625 C 116.171875 -16.582031 112.660156 -9.472656 105.640625 -4.828125 C 98.617188 -0.179688 86.925781 2.140625 70.5625 2.140625 Z M 70.5625 2.140625 "/></g></g></g><g fill="#100f0d" fill-opacity="1"><g transform="translate(1057.536483, 185.999613)"><g><path d="M 39.84375 0 L 11.140625 0 L 11.140625 -18.375 L 39.84375 -18.375 Z M 39.84375 0 "/></g></g></g></svg>