<svg xmlns="http://www.w3.org/2000/svg" xmlns:xlink="http://www.w3.org/1999/xlink" width="100%" zoomAndPan="magnify" viewBox="0 0 1315.5 349.499994" height="466" preserveAspectRatio="xMidYMid meet" version="1.0"><defs><g/></defs><g fill="#100f0d" fill-opacity="1"><g transform="translate(75.994129, 227.521479)"><g><path d="M 124.203125 0 L 11.015625 0 L 11.015625 -27.796875 L 51.171875 -27.796875 L 51.171875 -87.609375 L 11.015625 -87.609375 L 11.015625 -115.234375 L 124.203125 -115.234375 L 124.203125 -87.609375 L 84.21875 -87.609375 L 84.21875 -27.796875 L 124.203125 -27.796875 Z M 124.203125 0 "/></g></g></g><g fill="#100f0d" fill-opacity="1"><g transform="translate(195.602641, 227.521479)"><g><path d="M 89.125 2.71875 C 59.53125 2.71875 33.660156 1.414062 11.515625 -1.1875 L 10.34375 -32.03125 C 32.59375 -29.09375 50.328125 -27.171875 63.546875 -26.265625 C 76.765625 -25.472656 92.351562 -24.796875 110.3125 -24.234375 L 110.3125 -42.875 L 48.796875 -47.609375 C 35.015625 -48.742188 24.847656 -52.109375 18.296875 -57.703125 C 11.742188 -63.296875 8.46875 -71.457031 8.46875 -82.1875 C 8.46875 -94.5 12.929688 -103.535156 21.859375 -109.296875 C 30.785156 -115.054688 44.847656 -117.9375 64.046875 -117.9375 C 84.160156 -117.9375 109.070312 -116.75 138.78125 -114.375 L 139.796875 -83.546875 C 117.992188 -86.484375 98.171875 -88.515625 80.328125 -89.640625 C 68.347656 -90.429688 56.539062 -90.882812 44.90625 -91 L 44.90625 -72.859375 L 103.203125 -68.296875 C 118.222656 -67.046875 129.234375 -63.648438 136.234375 -58.109375 C 143.242188 -52.578125 146.75 -44.222656 146.75 -33.046875 C 146.75 -20.953125 142.3125 -11.96875 133.4375 -6.09375 C 124.570312 -0.21875 109.800781 2.71875 89.125 2.71875 Z M 89.125 2.71875 "/></g></g></g><g fill="#100f0d" fill-opacity="1"><g transform="translate(495.288381, 227.521479)"><g><path d="M 84.734375 0 L 34.90625 0 L 0.515625 -114.375 L 0.515625 -115.234375 L 36.4375 -115.234375 L 62.703125 -23.546875 L 63.71875 -23.546875 L 84.390625 -92.6875 L 123.015625 -92.6875 L 143.1875 -23.546875 L 144.203125 -23.546875 L 171.484375 -115.234375 L 206.21875 -115.234375 L 206.21875 -114.375 L 169.96875 0 L 121.15625 0 L 103.53125 -60.15625 L 102.6875 -60.15625 Z M 84.734375 0 "/></g></g></g><g fill="#100f0d" fill-opacity="1"><g transform="translate(684.281487, 227.521479)"><g><path d="M 91.84375 2.71875 C 71.507812 2.71875 55.609375 0.828125 44.140625 -2.953125 C 32.671875 -6.742188 24.421875 -12.957031 19.390625 -21.59375 C 14.367188 -30.238281 11.859375 -42.242188 11.859375 -57.609375 C 11.859375 -73.085938 14.34375 -85.144531 19.3125 -93.78125 C 24.289062 -102.425781 32.507812 -108.613281 43.96875 -112.34375 C 55.4375 -116.070312 71.394531 -117.9375 91.84375 -117.9375 C 112.289062 -117.9375 128.242188 -116.070312 139.703125 -112.34375 C 151.171875 -108.613281 159.390625 -102.425781 164.359375 -93.78125 C 169.335938 -85.144531 171.828125 -73.085938 171.828125 -57.609375 C 171.828125 -42.242188 169.335938 -30.238281 164.359375 -21.59375 C 159.390625 -12.957031 151.171875 -6.742188 139.703125 -2.953125 C 128.242188 0.828125 112.289062 2.71875 91.84375 2.71875 Z M 91.84375 -27.796875 C 105.851562 -27.796875 119.863281 -28.132812 133.875 -28.8125 L 133.875 -86.59375 C 118.28125 -87.15625 104.269531 -87.4375 91.84375 -87.4375 C 79.414062 -87.4375 65.460938 -87.15625 49.984375 -86.59375 L 49.984375 -28.8125 C 63.878906 -28.132812 77.832031 -27.796875 91.84375 -27.796875 Z M 91.84375 -27.796875 "/></g></g></g><g fill="#100f0d" fill-opacity="1"><g transform="translate(846.437973, 227.521479)"><g><path d="M 161.484375 -0.84375 L 161.484375 0 L 116.75 0 L 74.5625 -39.984375 L 53.375 -39.984375 L 53.375 0 L 18.640625 0 L 18.640625 -115.234375 L 112.171875 -115.234375 C 128.554688 -115.234375 140.585938 -112.097656 148.265625 -105.828125 C 155.953125 -99.554688 159.796875 -90.148438 159.796875 -77.609375 C 159.796875 -65.972656 156.488281 -57.019531 149.875 -50.75 C 143.269531 -44.476562 132.960938 -40.945312 118.953125 -40.15625 Z M 123.1875 -88.453125 L 53.375 -88.453125 L 53.375 -64.21875 L 123.1875 -64.21875 Z M 123.1875 -88.453125 "/></g></g></g><g fill="#100f0d" fill-opacity="1"><g transform="translate(329.151487, 227.521479)"><g><path d="M 126.40625 -73.375 L 126.40625 -115.234375 L 161.15625 -115.234375 L 161.15625 0 L 126.40625 0 L 126.40625 -43.890625 L 53.375 -43.890625 L 53.375 0 L 18.640625 0 L 18.640625 -115.234375 L 53.375 -115.234375 L 53.375 -73.375 Z M 126.40625 -73.375 "/></g></g></g><g fill="#100f0d" fill-opacity="1"><g transform="translate(1036.255962, 227.521479)"><g><path d="M 89.125 2.71875 C 59.53125 2.71875 33.660156 1.414062 11.515625 -1.1875 L 10.34375 -32.03125 C 32.59375 -29.09375 50.328125 -27.171875 63.546875 -26.265625 C 76.765625 -25.472656 92.351562 -24.796875 110.3125 -24.234375 L 110.3125 -42.875 L 48.796875 -47.609375 C 35.015625 -48.742188 24.847656 -52.109375 18.296875 -57.703125 C 11.742188 -63.296875 8.46875 -71.457031 8.46875 -82.1875 C 8.46875 -94.5 12.929688 -103.535156 21.859375 -109.296875 C 30.785156 -115.054688 44.847656 -117.9375 64.046875 -117.9375 C 84.160156 -117.9375 109.070312 -116.75 138.78125 -114.375 L 139.796875 -83.546875 C 117.992188 -86.484375 98.171875 -88.515625 80.328125 -89.640625 C 68.347656 -90.429688 56.539062 -90.882812 44.90625 -91 L 44.90625 -72.859375 L 103.203125 -68.296875 C 118.222656 -67.046875 129.234375 -63.648438 136.234375 -58.109375 C 143.242188 -52.578125 146.75 -44.222656 146.75 -33.046875 C 146.75 -20.953125 142.3125 -11.96875 133.4375 -6.09375 C 124.570312 -0.21875 109.800781 2.71875 89.125 2.71875 Z M 89.125 2.71875 "/></g></g></g><g fill="#100f0d" fill-opacity="1"><g transform="translate(1174.873986, 227.521479)"><g><path d="M 50.328125 0 L 14.0625 0 L 14.0625 -23.21875 L 50.328125 -23.21875 Z M 50.328125 0 "/></g></g></g></svg>