<svg xmlns="http://www.w3.org/2000/svg" xmlns:xlink="http://www.w3.org/1999/xlink" width="500" zoomAndPan="magnify" viewBox="0 0 375 374.999991" height="500" preserveAspectRatio="xMidYMid meet" version="1.0"><defs><g/></defs><g fill="#100f0d" fill-opacity="1"><g transform="translate(27.565163, 252.567528)"><g><path d="M 137.59375 0 L 12.203125 0 L 12.203125 -30.78125 L 56.6875 -30.78125 L 56.6875 -97.046875 L 12.203125 -97.046875 L 12.203125 -127.640625 L 137.59375 -127.640625 L 137.59375 -97.046875 L 93.28125 -97.046875 L 93.28125 -30.78125 L 137.59375 -30.78125 Z M 137.59375 0 "/></g></g></g><g fill="#100f0d" fill-opacity="1"><g transform="translate(177.356807, 252.567528)"><g><path d="M 98.734375 3 C 65.941406 3 37.285156 1.5625 12.765625 -1.3125 L 11.453125 -35.46875 C 36.097656 -32.21875 55.742188 -30.09375 70.390625 -29.09375 C 85.023438 -28.21875 102.289062 -27.46875 122.1875 -26.84375 L 122.1875 -47.484375 L 54.0625 -52.75 C 38.789062 -54 27.523438 -57.71875 20.265625 -63.90625 C 13.015625 -70.101562 9.390625 -79.144531 9.390625 -91.03125 C 9.390625 -104.675781 14.332031 -114.6875 24.21875 -121.0625 C 34.101562 -127.445312 49.679688 -130.640625 70.953125 -130.640625 C 93.222656 -130.640625 120.816406 -129.328125 153.734375 -126.703125 L 154.859375 -92.53125 C 130.703125 -95.789062 108.738281 -98.046875 88.96875 -99.296875 C 75.707031 -100.171875 62.628906 -100.671875 49.734375 -100.796875 L 49.734375 -80.71875 L 114.3125 -75.640625 C 130.957031 -74.265625 143.15625 -70.507812 150.90625 -64.375 C 158.664062 -58.25 162.546875 -48.992188 162.546875 -36.609375 C 162.546875 -23.210938 157.632812 -13.257812 147.8125 -6.75 C 137.988281 -0.25 121.628906 3 98.734375 3 Z M 98.734375 3 "/></g></g></g></svg>